<?xml version="1.0" standalone="no"?><!DOCTYPE svg PUBLIC "-//W3C//DTD SVG 1.1//EN" "http://www.w3.org/Graphics/SVG/1.1/DTD/svg11.dtd"><svg t="1509612002297" class="icon" style="" viewBox="0 0 1024 1024" version="1.1" xmlns="http://www.w3.org/2000/svg" p-id="13605" xmlns:xlink="http://www.w3.org/1999/xlink" width="200" height="200"><defs><style type="text/css"></style></defs><path d="M969.6 928h-864c-19.2 0-32 12.8-32 32s12.8 32 32 32h864c19.2 0 32-12.8 32-32s-12.8-32-32-32z m-768-96c19.2 0 32-12.8 32-32V448c0-19.2-12.8-32-32-32s-32 12.8-32 32v352c0 19.2 16 32 32 32z m224 0c19.2 0 32-12.8 32-32V64c0-19.2-12.8-32-32-32s-32 12.8-32 32v736c0 19.2 16 32 32 32z m192 0c19.2 0 32-12.8 32-32V288c0-19.2-12.8-32-32-32s-32 12.8-32 32v512c0 19.2 16 32 32 32z m224 0c19.2 0 32-12.8 32-32V416c0-19.2-12.8-32-32-32s-32 12.8-32 32v384c0 19.2 16 32 32 32z" fill="#ffffff" p-id="13606"></path></svg>