<?xml version="1.0" standalone="no"?><!DOCTYPE svg PUBLIC "-//W3C//DTD SVG 1.1//EN" "http://www.w3.org/Graphics/SVG/1.1/DTD/svg11.dtd"><svg t="1509615425544" class="icon" style="" viewBox="0 0 1024 1024" version="1.1" xmlns="http://www.w3.org/2000/svg" p-id="5049" xmlns:xlink="http://www.w3.org/1999/xlink" width="200" height="200"><defs><style type="text/css"></style></defs><path d="M791 390.91c-58.6 0-107.42-21.49-145.51-65.43L418.93 466.1c3.9 15.63 5.86 31.25 5.86 45.9 0 22.46-3.91 44.92-12.7 67.38L622.05 732.7c32.23-61.521 95.7-100.58 168.95-100.58 52.73 0 97.65 18.55 134.761 55.66 38.09 37.109 56.64 82.029 56.64 134.77 0 51.75-18.55 96.681-56.64 133.79C888.65 993.45 843.73 1012 791 1012c-52.74 0-97.66-18.55-135.75-55.66-37.1-37.109-55.66-82.04-56.64-133.79L355.45 657.51c-35.16 29.29-76.17 43.94-123.05 43.94-52.73 0-97.65-18.55-135.74-55.66C59.55 608.68 41 563.76 41 512c0-52.73 18.55-97.66 55.66-133.79 38.09-37.11 83.01-55.66 135.74-55.66 58.6 0 107.43 22.46 145.51 66.4l226.56-141.6c-3.899-15.62-5.859-31.25-5.859-45.9 0-51.75 18.56-96.68 55.67-133.79C692.36 30.55 737.29 12 790.021 12c53.71 0 98.63 18.55 135.74 55.66 38.09 37.11 56.64 82.04 56.64 134.77 0 51.76-18.55 96.68-56.64 133.79C888.65 372.35 843.73 390.91 791 390.91L791 390.91 791 390.91zM704.08 907.51c24.42 23.44 52.74 35.15 86.92 35.15 34.181 0 62.5-11.71 85.931-35.15 24.42-23.439 36.14-51.76 36.14-84.96 0-34.18-11.72-62.5-36.14-85.939-23.431-23.44-51.75-35.16-85.931-35.16-34.18 0-62.5 11.72-86.92 35.16-23.43 23.439-35.149 51.76-35.149 85.939C668.931 855.75 680.65 884.07 704.08 907.51L704.08 907.51 704.08 907.51zM318.34 427.04c-23.44-24.42-51.76-36.13-85.94-36.13-34.18 0-62.5 11.71-86.91 36.13-23.44 23.44-35.16 51.76-35.16 84.96s11.72 61.52 35.16 84.96c24.41 23.44 52.73 35.16 86.91 35.16 34.18 0 62.5-11.72 85.94-35.16 24.41-23.44 36.13-51.76 36.13-84.96S342.75 450.48 318.34 427.04L318.34 427.04 318.34 427.04zM876.931 116.49C853.5 93.05 825.181 81.34 791 81.34c-34.18 0-62.5 11.71-86.92 35.15-23.43 23.44-35.149 51.76-35.149 84.96 0 33.21 11.72 61.53 35.149 85.94 24.42 23.44 52.74 35.16 86.92 35.16 34.181 0 62.5-11.72 85.931-35.16 24.42-24.41 36.14-52.73 36.14-85.94C913.07 168.25 901.351 139.93 876.931 116.49L876.931 116.49z" p-id="5050" fill="#ffffff"></path></svg>