<?xml version="1.0" standalone="no"?><!DOCTYPE svg PUBLIC "-//W3C//DTD SVG 1.1//EN" "http://www.w3.org/Graphics/SVG/1.1/DTD/svg11.dtd"><svg t="1509614940055" class="icon" style="" viewBox="0 0 1024 1024" version="1.1" xmlns="http://www.w3.org/2000/svg" p-id="11920" xmlns:xlink="http://www.w3.org/1999/xlink" width="200" height="200"><defs><style type="text/css"></style></defs><path d="M736.240236 178.629192a286.77884 286.77884 0 0 0-182.338642 508.002749l116.911623 192.251826H374.504929c0.127912-2.366373 0.511648-4.540878 0.511648-6.971207l2.110549-104.056461 2.494285-321.762788 0.703517-60.886141c3.325714-3.197802 6.651427-6.203735 9.785272-9.33758a230.881269 230.881269 0 0 0 67.98526-161.680845A226.788083 226.788083 0 0 0 357.492625 24.239335l-0.255824 0.191869-0.511649-0.447693a207.98501 207.98501 0 0 0-36.199113-19.250765A37.925926 37.925926 0 0 0 302.426483 0a39.524827 39.524827 0 0 0-39.524827 39.460871c-0.31978 41.763288-0.831428 83.590532-0.95934 125.417775l-15.861096 9.145712-16.628568 9.721317-15.733183-9.465493-16.11692-9.145712c0.255824-41.507464 0.511648-83.590532 1.023297-125.353819a48.606583 48.606583 0 0 0-2.75011-14.326151 38.885266 38.885266 0 0 0-36.007245-24.367247 37.414278 37.414278 0 0 0-14.454062 2.941977 189.054025 189.054025 0 0 0-41.123728 21.617138c-13.110986 8.314284-24.623072 18.355381-35.239772 28.972082A233.375554 233.375554 0 0 0 0.745888 216.619074l0.255824 0.255825a224.613578 224.613578 0 0 0 66.194492 161.233152l-0.255824 0.255824c2.494285 2.430329 6.075823 5.628131 9.721316 9.145712l-5.116482 486.193742 0.63956 0.383736c-0.895384 71.822622 38.82131 118.062832 89.41053 137.889201 18.930985 7.546812 38.949222 11.320217 59.095372 11.320218h1.470989l0.127912-0.255824h0.255824c20.274062 0 41.251639-3.965274 60.566361-12.08769 31.978015-12.791206 59.862844-36.071201 76.299544-69.456249h362.246955c0.511648 0 0.895384-0.255824 1.343077-0.255824a47.647243 47.647243 0 0 0 50.077571-15.349447l145.372057-239.195553a286.650927 286.650927 0 0 0-182.21073-508.066705zM315.665381 445.581663l-2.494285 321.059271-2.110549 104.951846c-0.255824 49.182187-28.204609 70.671413-52.699769 80.520642-11.000437 4.604834-23.343951 7.035163-36.007245 7.035163a58.711636 58.711636 0 0 0-4.66879 0.255824 94.782837 94.782837 0 0 1-32.681532-6.971207c-22.640435-8.889888-49.438011-29.48373-48.862407-77.578664a61.397789 61.397789 0 0 0-0.511648-8.37824l4.98857-478.263195a63.700206 63.700206 0 0 0-20.082193-47.263506l-4.860658-4.540878c-1.023296-1.279121-2.174505-2.366373-3.261758-3.517582a160.209856 160.209856 0 0 1-47.455374-115.50459c0-1.407033 0-2.878021-0.127912-4.285054 1.598901-42.85054 19.122853-82.950971 49.438011-113.26613 7.354943-7.290987 13.750546-12.919118 19.954281-17.332084l-0.447692 65.107239-0.127912 17.07626a63.828118 63.828118 0 0 0 32.489663 56.153394l15.221536 8.634064 14.837799 9.017801a64.083942 64.083942 0 0 0 65.618887 0.447692l16.116919-9.401537 15.925052-9.209668a63.95603 63.95603 0 0 0 32.041971-55.25801c0.063956-28.140653 0.31978-56.345263 0.63956-84.42196a162.000625 162.000625 0 0 1 67.537568 133.284367 168.332272 168.332272 0 0 1-52.955593 120.301293c-1.854725 1.726813-3.773406 3.453626-5.628131 5.30835a64.019986 64.019986 0 0 0-19.186809 44.897134l-0.63956 61.141965z m562.237462 191.740178a63.31647 63.31647 0 0 0-13.878459 16.11692l-127.784148 210.095559-127.656236-210.095559a65.043283 65.043283 0 0 0-14.006371-16.11692 222.247205 222.247205 0 0 1-81.096246-171.977765 223.014677 223.014677 0 0 1 222.694897-222.758853 223.014677 223.014677 0 0 1 222.822809 222.758853 222.055337 222.055337 0 0 1-81.096246 171.977765z" p-id="11921" fill="#ffffff"></path><path d="M736.240236 330.524764a134.819312 134.819312 0 1 0 0.127912 269.638624 134.819312 134.819312 0 0 0-0.127912-269.638624z m0 205.810506a70.927238 70.927238 0 1 1 0.191868-141.79052 70.927238 70.927238 0 0 1-0.191868 141.79052z" p-id="11922" fill="#ffffff"></path></svg>