<?xml version="1.0" standalone="no"?><!DOCTYPE svg PUBLIC "-//W3C//DTD SVG 1.1//EN" "http://www.w3.org/Graphics/SVG/1.1/DTD/svg11.dtd"><svg t="1509614531617" class="icon" style="" viewBox="0 0 1024 1024" version="1.1" xmlns="http://www.w3.org/2000/svg" p-id="6996" xmlns:xlink="http://www.w3.org/1999/xlink" width="200" height="200"><defs><style type="text/css"></style></defs><path d="M96 32A32 32 0 0 0 64 64v896a32 32 0 0 0 64 0V64a32 32 0 0 0-32-32zM256 192V64a32 32 0 0 0-64 0v128a32 32 0 0 0 64 0zM224 904.32c-5.76 5.76-9.6 14.08-9.6 22.4s3.2 16.64 9.6 23.04c6.4 5.76 14.72 8.96 22.4 8.96 8.32 0 16.64-3.2 23.04-8.96a33.536 33.536 0 0 0 0-45.44c-11.52-12.224-33.28-12.224-45.44 0zM864 288A32 32 0 0 0 896 256V64a32 32 0 0 0-64 0v192a32 32 0 0 0 32 32zM544 544A32 32 0 0 0 512 576v256a32 32 0 0 0 64 0V576a32 32 0 0 0-32-32zM672 352a32 32 0 0 0-32 32v384a32 32 0 0 0 64 0V384a32 32 0 0 0-32-32zM672 160A32 32 0 0 0 704 128V64a32 32 0 0 0-64 0v64a32 32 0 0 0 32 32z" p-id="6997" fill="#ffffff"></path><path d="M941.76 918.208l-97.536-97.536c121.152-143.36 115.84-357.824-19.264-492.864A363.008 363.008 0 0 0 566.656 220.8c-4.48 0-8.768 1.152-13.248 1.28A31.552 31.552 0 0 0 576 192V64a32 32 0 0 0-64 0v128c0 16.512 12.672 29.632 28.736 31.36a359.744 359.744 0 0 0-163.712 51.776A31.552 31.552 0 0 0 384 256V64a32 32 0 0 0-64 0v192a32 32 0 0 0 32 32c2.304 0 4.288-0.832 6.464-1.344-17.6 12.288-34.56 25.6-50.048 41.088a365.824 365.824 0 0 0 0 516.48 362.752 362.752 0 0 0 258.176 106.88 363.264 363.264 0 0 0 202.56-61.12c-0.32 2.048-1.152 3.904-1.152 6.016v64a32 32 0 0 0 64 0v-61.056l64.512 64.512a31.872 31.872 0 0 0 45.312 0 32.064 32.064 0 0 0-0.064-45.248z m-588.032-119.232a301.632 301.632 0 0 1 0-425.92A299.328 299.328 0 0 1 566.656 284.8c80.512 0 156.096 31.36 213.056 88.192a301.568 301.568 0 0 1 0 425.984 299.712 299.712 0 0 1-213.056 88.128 299.072 299.072 0 0 1-212.928-88.128z" p-id="6998" fill="#ffffff"></path></svg>