<?xml version="1.0" standalone="no"?><!DOCTYPE svg PUBLIC "-//W3C//DTD SVG 1.1//EN" "http://www.w3.org/Graphics/SVG/1.1/DTD/svg11.dtd"><svg t="1509679740055" class="icon" style="" viewBox="0 0 1024 1024" version="1.1" xmlns="http://www.w3.org/2000/svg" p-id="65394" xmlns:xlink="http://www.w3.org/1999/xlink" width="200" height="200"><defs><style type="text/css"></style></defs><path d="M761.558799 303.444057 761.558799 120.577193 90.695628 120.577193l0 240.216014 182.963055 1.36509 0 126.032438L90.695628 488.190735l0 422.176229 670.863171 0L761.558799 549.009915l182.963055 0L944.521854 303.444057 761.558799 303.444057zM159.059646 300.672944l0-107.436918 534.658046 0 0 107.436918L159.059646 300.672944zM692.982958 841.446267 158.324912 841.446267l0-107.436918 534.658046 0L692.982958 841.446267zM692.982958 666.101727 158.324912 666.101727l0-107.436918 534.658046 0L692.982958 666.101727zM875.946013 483.667721 341.287967 483.667721l0-107.436918 534.658046 0L875.946013 483.667721z" p-id="65395" fill="#ffffff"></path></svg>