<?xml version="1.0" standalone="no"?><!DOCTYPE svg PUBLIC "-//W3C//DTD SVG 1.1//EN" "http://www.w3.org/Graphics/SVG/1.1/DTD/svg11.dtd"><svg t="1509616136774" class="icon" style="" viewBox="0 0 1024 1024" version="1.1" xmlns="http://www.w3.org/2000/svg" p-id="22584" xmlns:xlink="http://www.w3.org/1999/xlink" width="200" height="200"><defs><style type="text/css"></style></defs><path d="M645.05344 135.00416l304.92672 116.42368v482.33984l-260.56704 177.408H334.592l-266.11712-177.408V251.42784L373.4016 135.00416v332.6464h271.65696v-332.6464m-55.43936-77.6192v354.82112H428.84096V57.38496l-72.06912 27.7248L46.30016 195.98848l-33.26464 16.62976v548.86912l22.17472 16.62976 266.12224 177.408 16.62976 11.08992H706.04288l16.63488-11.08992 266.11712-182.94784 22.17472-16.63488V212.61312l-38.80448-11.0848-304.9216-116.4288-77.62432-27.71456z" p-id="22585" fill="#ffffff"></path><path d="M647.82848 755.9424H376.17152c-16.63488 0-27.71968-11.08992-27.71968-27.7248 0-16.62976 11.0848-27.71968 27.71968-27.71968h271.66208c16.64 0 27.71968 11.08992 27.71968 27.71968-0.00512 16.63488-11.0848 27.7248-27.7248 27.7248z" p-id="22586" fill="#ffffff"></path></svg>