<?xml version="1.0" standalone="no"?><!DOCTYPE svg PUBLIC "-//W3C//DTD SVG 1.1//EN" "http://www.w3.org/Graphics/SVG/1.1/DTD/svg11.dtd"><svg t="1509615816572" class="icon" style="" viewBox="0 0 1024 1024" version="1.1" xmlns="http://www.w3.org/2000/svg" p-id="20354" xmlns:xlink="http://www.w3.org/1999/xlink" width="200" height="200"><defs><style type="text/css"></style></defs><path d="M1024 887.467a68.267 68.267 0 0 1-68.267 68.266H68.267A68.267 68.267 0 0 1 0 887.467V546.133C0 533.641 3.618 522.07 9.455 512A67.823 67.823 0 0 1 0 477.867V136.533a68.267 68.267 0 0 1 68.267-68.266h887.466A68.267 68.267 0 0 1 1024 136.533v341.334c0 12.492-3.618 24.064-9.455 34.133 5.837 10.07 9.455 21.64 9.455 34.133v341.334z m-68.267-716.8a34.133 34.133 0 0 0-34.133-34.134H102.4a34.133 34.133 0 0 0-34.133 34.134v273.066a34.133 34.133 0 0 0 34.133 34.134h819.2a34.133 34.133 0 0 0 34.133-34.134V170.667z m0 409.6a34.133 34.133 0 0 0-34.133-34.134H102.4a34.133 34.133 0 0 0-34.133 34.134v273.066a34.133 34.133 0 0 0 34.133 34.134h819.2a34.133 34.133 0 0 0 34.133-34.134V580.267z m-153.6 170.666H256a17.067 17.067 0 0 1-17.067-17.066v-34.134A17.067 17.067 0 0 1 256 682.667h546.133a17.067 17.067 0 0 1 17.067 17.066v34.134a17.067 17.067 0 0 1-17.067 17.066z m0-409.6h-204.8a17.067 17.067 0 0 1-17.066-17.066v-34.134a17.067 17.067 0 0 1 17.066-17.066h204.8a17.067 17.067 0 0 1 17.067 17.066v34.134a17.067 17.067 0 0 1-17.067 17.066z m-341.333 0H256a17.067 17.067 0 0 1-17.067-17.066v-34.134A17.067 17.067 0 0 1 256 273.067h204.8a17.067 17.067 0 0 1 17.067 17.066v34.134a17.067 17.067 0 0 1-17.067 17.066z" fill="#ffffff" p-id="20355"></path></svg>