<?xml version="1.0" standalone="no"?><!DOCTYPE svg PUBLIC "-//W3C//DTD SVG 1.1//EN" "http://www.w3.org/Graphics/SVG/1.1/DTD/svg11.dtd"><svg t="1509610580177" class="icon" style="" viewBox="0 0 1024 1024" version="1.1" xmlns="http://www.w3.org/2000/svg" p-id="3266" xmlns:xlink="http://www.w3.org/1999/xlink" width="200" height="200"><defs><style type="text/css"></style></defs><path d="M59.259 536.757l404.35 180.795c35.708 16.774 51.148 16.774 89.842 0l404.35-180.795c19.951-9.277 27.257-52.8 27.257-76.213-25.987 12.961-62.807 31.387-63.537 31.579l-412.991 189.373-412.991-189.373c1.43 0.858-36.533-16.234-63.537-31.579 0 22.905 5.782 64.871 27.257 76.213zM508.531 870.898l-412.991-189.404c1.43 0.89-36.533-16.202-63.537-31.546 0 22.905 5.782 64.839 27.257 76.213l404.35 180.827c35.708 16.774 51.148 16.774 89.842 0l404.35-180.827c19.951-9.277 27.257-52.8 27.257-76.213-25.987 12.93-62.807 31.419-63.537 31.546l-412.991 189.404zM508.531 81.734l412.991 220.95-412.991 173.139-412.991-173.139 412.991-220.95zM59.259 347.321l404.35 180.827c35.708 16.742 51.148 16.742 89.842 0l404.35-180.827c29.767-13.82 30.752-72.496 0-89.302l-404.319-212.341c-31.768-18.712-54.133-17.759-89.842 0l-404.382 212.373c-30.784 19.729-31.768 72.527 0 89.27zM508.531 81.734c2.987 3.463 2.192 0.73 0 0zM508.531 81.734z" p-id="3267" fill="#ffffff"></path></svg>