<?xml version="1.0" standalone="no"?><!DOCTYPE svg PUBLIC "-//W3C//DTD SVG 1.1//EN" "http://www.w3.org/Graphics/SVG/1.1/DTD/svg11.dtd"><svg t="1509614077823" class="icon" style="" viewBox="0 0 1027 1024" version="1.1" xmlns="http://www.w3.org/2000/svg" p-id="1007" xmlns:xlink="http://www.w3.org/1999/xlink" width="200.5859375" height="200"><defs><style type="text/css"></style></defs><path d="M982.405611 393.002143c-5.386324-2.194428-11.071888-3.790376-16.956946-4.58835L875.776349 376.344438l-8.877459-21.545295 55.159945-72.615625c20.348334-26.831872 17.655172-65.134619-6.084551-89.173582L833.88272 111.117865c-6.184298-6.084551-13.465809-10.872394-21.645042-14.263784-8.378726-3.391389-17.156439-5.087084-26.033899-5.087083-14.862264 0-29.325541 4.88759-40.896162 13.76505l-72.815117 54.860705-20.348335-8.378726L639.376583 61.045003c-3.590883-23.639977-19.650107-44.088058-41.993376-53.165011-8.079486-3.291642-16.657705-4.987337-25.335671-5.087083l-115.905709-0.199494c-34.312877 0.099747-62.740697 25.036431-67.52854 59.149815l-11.770115 89.672316-22.044029 9.076954-71.717904-55.159946c-4.787843-3.690629-10.07442-6.683031-15.759984-9.076953-8.179232-3.391389-16.757452-5.087084-25.535165-5.087084-18.054159 0-35.310345 7.082018-48.377167 19.949348l-81.792325 81.991817c-23.639977 23.939217-26.133645 62.441457-5.685564 89.472823l55.459186 71.119424-8.877459 21.046561-91.567505 13.46581c-32.71693 4.987337-57.653614 33.913891-57.952854 67.329047l0.099747 115.207481c0.099747 27.82934 16.657705 52.466784 42.19287 63.039938 5.386324 2.194428 11.171635 3.690629 17.056692 4.488603l89.273329 11.570621 1.396454 3.491136 4.88759 19.949347-52.86577 72.017144c-19.749854 26.831872-16.956945 64.835379 6.583284 88.275862l81.792325 81.692578c6.284044 6.284044 13.665303 11.171635 21.944282 14.563023 8.179232 3.391389 16.956945 5.087084 26.033898 5.087084 14.66277 0 29.325541-4.688097 40.995909-13.266316l73.313851-55.060199 19.350867 7.979739 13.665303 91.766998c3.690629 23.54023 19.55036 43.689071 41.494643 52.666277 8.079486 3.291642 16.557958 4.987337 25.235924 4.987337l116.005455-0.099747c34.312877 0 62.640951-24.737191 67.428794-58.750828l12.268849-89.971556 19.949347-8.179233 74.311319 54.960452c4.58835 3.391389 9.47594 6.184298 14.66277 8.278979 8.179232 3.391389 16.757452 5.087084 25.734659 5.087084 18.153906 0 35.709332-7.181765 48.077927-19.749854l81.692577-81.592831c24.038964-23.83947 26.732125-62.142217 6.084551-89.173582l-54.960452-72.715371L874.778882 652.343659l91.567504-13.964543c33.415157-4.987337 57.853107-33.31541 58.052601-67.229301V455.942334c0.099747-27.82934-16.458212-52.466784-41.993376-62.940191zM820.71615 588.306254l-6.583284 21.345801c-2.493668 7.780245-5.286577 15.660238-8.478473 23.340737-4.089616 9.874927-8.079486 18.453146-12.169102 26.333138l-10.672901 20.148841 80.09663 105.931035-77.503214 77.303721-106.828756-79.099163-19.749853 9.974674c-16.757452 8.578219-33.913891 15.560491-50.771089 20.747321l-21.744789 6.683032-17.954413 131.366452-109.521917 0.099747-19.749854-131.865186-21.146308-6.782778c-8.278979-2.593415-16.458212-5.585817-24.338204-8.777713-8.777713-3.590883-17.256185-7.580752-25.435417-11.869862l-19.949348-10.373661-106.429768 79.79739-77.503214-77.503215L243.382038 677.579583l-9.974674-19.650107c-8.777713-17.256185-15.859731-34.612118-21.146308-51.469316l-6.782778-21.944282-130.967466-16.956946V458.336256l131.466199-19.350867 6.882525-20.946815c2.992402-8.87746 5.885057-16.857199 8.977207-24.338204 3.890123-9.77518 8.378726-19.051627 12.967075-27.829339l10.772648-20.448081-81.094097-104.23534 77.403468-77.503215L347.018897 244.379505l20.248588-10.672901c16.258718-8.578219 33.61465-15.759984 52.965517-21.844535l21.645042-6.882525 17.156439-131.067212 109.821157 0.099747 18.65264 131.665692 21.445548 6.782778c8.578219 2.693162 17.056692 5.685564 25.136178 8.977207 8.87746 3.590883 17.455679 7.680499 25.535164 11.969608l20.049095 10.672901 106.230274-80.09663 77.403468 77.303721-80.196376 105.532048 10.37366 20.049094c8.777713 17.056692 15.859731 34.113384 21.545295 52.466784l6.782779 21.645041L952.880577 458.834989l0.099746 109.422171-132.264173 20.049094z" fill="#ffffff" p-id="1008"></path><path d="M513.695695 297.843756c-118.798364 0-215.452951 96.654588-215.452952 215.452952s96.654588 215.452951 215.452952 215.452951 215.452951-96.654588 215.452951-215.452951-96.654588-215.452951-215.452951-215.452952z m0 359.387493c-79.498149 0-143.934541-64.436392-143.934542-143.934541 0-79.498149 64.436392-143.934541 143.934542-143.934542 79.498149 0 143.934541 64.436392 143.934541 143.934542 0 79.498149-64.436392 143.934541-143.934541 143.934541z" fill="#ffffff" p-id="1009"></path></svg>