<?xml version="1.0" standalone="no"?><!DOCTYPE svg PUBLIC "-//W3C//DTD SVG 1.1//EN" "http://www.w3.org/Graphics/SVG/1.1/DTD/svg11.dtd"><svg t="1509613441345" class="icon" style="" viewBox="0 0 1024 1024" version="1.1" xmlns="http://www.w3.org/2000/svg" p-id="16651" xmlns:xlink="http://www.w3.org/1999/xlink" width="200" height="200"><defs><style type="text/css"></style></defs><path d="M515.192 780.224c-34.12-1.968-52.096-19.44-53.856-52.544 1.76-35.024 19.736-54.44 53.856-58.384 32.304 3.944 50.232 23.36 53.856 58.384C565.424 760.792 547.496 778.256 515.192 780.224zM464.032 575.92 464.032 287.016c0-31.088 17.032-47.664 51.16-49.624 28.68 3.928 44.856 20.44 48.472 49.624L563.664 575.92c-3.616 31.144-19.792 47.704-48.472 49.624C482.872 623.624 465.792 607.064 464.032 575.92z" p-id="16652" fill="#ffffff"></path><path d="M996.624 306.896 712.856 25.6 313.288 27.36 32 311.112l1.744 399.592L317.512 992l399.592-1.752L998.4 706.464 996.624 306.896zM691.376 928.96l-348.68 1.512L95.04 685l-1.536-348.704 245.504-247.64L687.68 87.12l247.656 245.488 1.536 348.688L691.376 928.96z" p-id="16653" fill="#ffffff"></path></svg>