<?xml version="1.0" standalone="no"?><!DOCTYPE svg PUBLIC "-//W3C//DTD SVG 1.1//EN" "http://www.w3.org/Graphics/SVG/1.1/DTD/svg11.dtd"><svg t="1509616495892" class="icon" style="" viewBox="0 0 1024 1024" version="1.1" xmlns="http://www.w3.org/2000/svg" p-id="31119" xmlns:xlink="http://www.w3.org/1999/xlink" width="200" height="200"><defs><style type="text/css"></style></defs><path d="M992 832h-101.504l71.808 71.744-90.56 90.56L800 922.496V1024h-128v-101.504l-71.744 71.808-90.56-90.56L581.504 832H480v-128h101.504L509.696 632.256l90.56-90.56L672 613.504V512h128v101.504l71.744-71.808 90.56 90.56L890.496 704H992v128z m-256-192a128 128 0 1 0-0.064 255.936A128 128 0 0 0 736 640z m128-512a64 64 0 0 0-64-64h-64v64a64 64 0 0 1-64 64H288a64 64 0 0 1-64-64V64H160a64 64 0 0 0-64 64v704a64 64 0 0 0 64 64h215.488c8 22.464 17.984 43.712 29.76 64H160a128 128 0 0 1-128-128V128a128 128 0 0 1 128-128h128v128h384V0h128a128 128 0 0 1 128 128v309.248a383.296 383.296 0 0 0-64-29.76V128zM352 0h256v64H352V0zM224 768v-64h134.464A383.232 383.232 0 0 0 352 768H224z m0-448h512v64H224V320z m0 256V512h227.648a384.96 384.96 0 0 0-46.4 64H224z" p-id="31120" fill="#ffffff"></path></svg>